<svg width="126" height="56" viewBox="0 0 126 56" fill="none" xmlns="http://www.w3.org/2000/svg">
<rect width="126" height="56" rx="28" fill="#E95D02"/>
<path d="M43.7926 25.7102C43.7472 25.2519 43.5521 24.8958 43.2074 24.642C42.8627 24.3883 42.3949 24.2614 41.804 24.2614C41.4025 24.2614 41.0634 24.3182 40.7869 24.4318C40.5104 24.5417 40.2983 24.6951 40.1506 24.892C40.0066 25.089 39.9347 25.3125 39.9347 25.5625C39.9271 25.7708 39.9706 25.9527 40.0653 26.108C40.1638 26.2633 40.2983 26.3977 40.4688 26.5114C40.6392 26.6212 40.8362 26.7178 41.0597 26.8011C41.2831 26.8807 41.5218 26.9489 41.7756 27.0057L42.821 27.2557C43.3286 27.3693 43.7945 27.5208 44.2188 27.7102C44.643 27.8996 45.0104 28.1326 45.321 28.4091C45.6316 28.6856 45.8722 29.0114 46.0426 29.3864C46.2169 29.7614 46.3059 30.1913 46.3097 30.6761C46.3059 31.3883 46.1241 32.0057 45.7642 32.5284C45.4081 33.0473 44.893 33.4508 44.2188 33.7386C43.5483 34.0227 42.7396 34.1648 41.7926 34.1648C40.8532 34.1648 40.035 34.0208 39.3381 33.733C38.6449 33.4451 38.1032 33.0189 37.7131 32.4545C37.3267 31.8864 37.1241 31.1837 37.1051 30.3466H39.4858C39.5123 30.7367 39.6241 31.0625 39.821 31.3239C40.0218 31.5814 40.2888 31.7765 40.6222 31.9091C40.9593 32.0379 41.34 32.1023 41.7642 32.1023C42.1809 32.1023 42.5426 32.0417 42.8494 31.9205C43.16 31.7992 43.4006 31.6307 43.571 31.4148C43.7415 31.1989 43.8267 30.9508 43.8267 30.6705C43.8267 30.4091 43.7491 30.1894 43.5938 30.0114C43.4422 29.8333 43.2188 29.6818 42.9233 29.5568C42.6316 29.4318 42.2737 29.3182 41.8494 29.2159L40.5824 28.8977C39.6013 28.6591 38.8267 28.286 38.2585 27.7784C37.6903 27.2708 37.4081 26.5871 37.4119 25.7273C37.4081 25.0227 37.5956 24.4072 37.9744 23.8807C38.357 23.3542 38.8816 22.9432 39.5483 22.6477C40.215 22.3523 40.9725 22.2045 41.821 22.2045C42.6847 22.2045 43.4384 22.3523 44.0824 22.6477C44.7301 22.9432 45.2339 23.3542 45.5938 23.8807C45.9536 24.4072 46.1392 25.017 46.1506 25.7102H43.7926ZM47.919 34V25.2727H50.3395V34H47.919ZM49.1349 24.1477C48.7751 24.1477 48.4664 24.0284 48.2088 23.7898C47.955 23.5473 47.8281 23.2576 47.8281 22.9205C47.8281 22.5871 47.955 22.3011 48.2088 22.0625C48.4664 21.8201 48.7751 21.6989 49.1349 21.6989C49.4948 21.6989 49.8016 21.8201 50.0554 22.0625C50.313 22.3011 50.4418 22.5871 50.4418 22.9205C50.4418 23.2576 50.313 23.5473 50.0554 23.7898C49.8016 24.0284 49.4948 24.1477 49.1349 24.1477ZM56.2102 37.4545C55.4261 37.4545 54.7538 37.3466 54.1932 37.1307C53.6364 36.9186 53.1932 36.6288 52.8636 36.2614C52.5341 35.8939 52.3201 35.4811 52.2216 35.0227L54.4602 34.7216C54.5284 34.8958 54.6364 35.0587 54.7841 35.2102C54.9318 35.3617 55.1269 35.483 55.3693 35.5739C55.6155 35.6686 55.9148 35.7159 56.267 35.7159C56.7936 35.7159 57.2273 35.5871 57.5682 35.3295C57.9129 35.0758 58.0852 34.6496 58.0852 34.0511V32.4545H57.983C57.8769 32.697 57.7178 32.9261 57.5057 33.142C57.2936 33.358 57.0208 33.5341 56.6875 33.6705C56.3542 33.8068 55.9564 33.875 55.4943 33.875C54.839 33.875 54.2424 33.7235 53.7045 33.4205C53.1705 33.1136 52.7443 32.6458 52.4261 32.017C52.1117 31.3845 51.9545 30.5852 51.9545 29.6193C51.9545 28.6307 52.1155 27.8049 52.4375 27.142C52.7595 26.4792 53.1875 25.983 53.7216 25.6534C54.2595 25.3239 54.8485 25.1591 55.4886 25.1591C55.9773 25.1591 56.3864 25.2424 56.7159 25.4091C57.0455 25.572 57.3106 25.7765 57.5114 26.0227C57.7159 26.2652 57.8731 26.5038 57.983 26.7386H58.0739V25.2727H60.4773V34.0852C60.4773 34.8277 60.2955 35.4489 59.9318 35.9489C59.5682 36.4489 59.0644 36.8239 58.4205 37.0739C57.7803 37.3277 57.0436 37.4545 56.2102 37.4545ZM56.2614 32.0568C56.6515 32.0568 56.9811 31.9602 57.25 31.767C57.5227 31.5701 57.7311 31.2898 57.875 30.9261C58.0227 30.5587 58.0966 30.1193 58.0966 29.608C58.0966 29.0966 58.0246 28.6534 57.8807 28.2784C57.7367 27.8996 57.5284 27.6061 57.2557 27.3977C56.983 27.1894 56.6515 27.0852 56.2614 27.0852C55.8636 27.0852 55.5284 27.1932 55.2557 27.4091C54.983 27.6212 54.7765 27.9167 54.6364 28.2955C54.4962 28.6742 54.4261 29.1117 54.4261 29.608C54.4261 30.1117 54.4962 30.5473 54.6364 30.9148C54.7803 31.2784 54.9867 31.5606 55.2557 31.7614C55.5284 31.9583 55.8636 32.0568 56.2614 32.0568ZM64.8239 28.9545V34H62.4034V25.2727H64.7102V26.8125H64.8125C65.0057 26.3049 65.3295 25.9034 65.7841 25.608C66.2386 25.3087 66.7898 25.1591 67.4375 25.1591C68.0436 25.1591 68.572 25.2917 69.0227 25.5568C69.4735 25.822 69.8239 26.2008 70.0739 26.6932C70.3239 27.1818 70.4489 27.7652 70.4489 28.4432V34H68.0284V28.875C68.0322 28.3409 67.8958 27.9242 67.6193 27.625C67.3428 27.322 66.9621 27.1705 66.4773 27.1705C66.1515 27.1705 65.8636 27.2405 65.6136 27.3807C65.3674 27.5208 65.1742 27.7254 65.0341 27.9943C64.8977 28.2595 64.8277 28.5795 64.8239 28.9545ZM78.5653 22.3636V34H76.1051V22.3636H78.5653ZM82.9645 28.9545V34H80.544V25.2727H82.8509V26.8125H82.9531C83.1463 26.3049 83.4702 25.9034 83.9247 25.608C84.3793 25.3087 84.9304 25.1591 85.5781 25.1591C86.1842 25.1591 86.7126 25.2917 87.1634 25.5568C87.6141 25.822 87.9645 26.2008 88.2145 26.6932C88.4645 27.1818 88.5895 27.7652 88.5895 28.4432V34H86.169V28.875C86.1728 28.3409 86.0365 27.9242 85.7599 27.625C85.4834 27.322 85.1027 27.1705 84.6179 27.1705C84.2921 27.1705 84.0043 27.2405 83.7543 27.3807C83.508 27.5208 83.3149 27.7254 83.1747 27.9943C83.0384 28.2595 82.9683 28.5795 82.9645 28.9545Z" fill="white"/>
</svg>
