<svg width="161" height="71" viewBox="0 0 161 71" fill="none" xmlns="http://www.w3.org/2000/svg">
<g filter="url(#filter0_d_64_94)">
<rect width="153" height="63" fill="#081800"/>
<path d="M36.786 38.09C35.85 38.09 34.998 37.91 34.23 37.55C33.474 37.19 32.82 36.704 32.268 36.092C31.728 35.468 31.308 34.772 31.008 34.004C30.708 33.224 30.558 32.426 30.558 31.61C30.558 30.758 30.714 29.948 31.026 29.18C31.338 28.4 31.776 27.71 32.34 27.11C32.904 26.498 33.564 26.018 34.32 25.67C35.088 25.31 35.928 25.13 36.84 25.13C37.764 25.13 38.604 25.316 39.36 25.688C40.128 26.06 40.782 26.558 41.322 27.182C41.874 27.806 42.294 28.508 42.582 29.288C42.882 30.056 43.032 30.842 43.032 31.646C43.032 32.486 42.876 33.296 42.564 34.076C42.252 34.844 41.814 35.534 41.25 36.146C40.698 36.746 40.038 37.22 39.27 37.568C38.514 37.916 37.686 38.09 36.786 38.09ZM33.078 31.61C33.078 32.354 33.222 33.05 33.51 33.698C33.81 34.346 34.236 34.874 34.788 35.282C35.352 35.69 36.024 35.894 36.804 35.894C37.608 35.894 38.286 35.684 38.838 35.264C39.39 34.844 39.81 34.304 40.098 33.644C40.386 32.984 40.53 32.306 40.53 31.61C40.53 30.866 40.38 30.17 40.08 29.522C39.78 28.874 39.348 28.352 38.784 27.956C38.232 27.548 37.572 27.344 36.804 27.344C36 27.344 35.322 27.554 34.77 27.974C34.218 28.394 33.798 28.934 33.51 29.594C33.222 30.242 33.078 30.914 33.078 31.61ZM50.2316 30.656C49.4996 30.656 48.8456 30.8 48.2696 31.088C47.6936 31.364 47.2796 31.766 47.0276 32.294V38H44.6156V28.568H46.8296V30.584C47.1536 29.936 47.5736 29.426 48.0896 29.054C48.6176 28.682 49.1696 28.478 49.7456 28.442C49.9976 28.442 50.1596 28.448 50.2316 28.46V30.656ZM50.9126 33.284C50.9126 32.384 51.0926 31.562 51.4526 30.818C51.8126 30.074 52.3106 29.486 52.9466 29.054C53.5826 28.622 54.3086 28.406 55.1246 28.406C55.8206 28.406 56.4446 28.58 56.9966 28.928C57.5606 29.264 57.9986 29.696 58.3106 30.224V24.86H60.7226V35.3C60.7226 35.564 60.7646 35.75 60.8486 35.858C60.9326 35.954 61.0766 36.014 61.2806 36.038V38C60.8486 38.084 60.5066 38.126 60.2546 38.126C59.8226 38.126 59.4626 38.018 59.1746 37.802C58.8986 37.586 58.7426 37.304 58.7066 36.956L58.6706 36.362C58.3226 36.95 57.8486 37.4 57.2486 37.712C56.6606 38.024 56.0426 38.18 55.3946 38.18C54.5186 38.18 53.7446 37.964 53.0726 37.532C52.4006 37.088 51.8726 36.5 51.4886 35.768C51.1046 35.024 50.9126 34.196 50.9126 33.284ZM58.3106 34.544V32.294C58.1186 31.766 57.7886 31.328 57.3206 30.98C56.8526 30.632 56.3726 30.458 55.8806 30.458C55.3886 30.458 54.9566 30.596 54.5846 30.872C54.2126 31.136 53.9246 31.49 53.7206 31.934C53.5166 32.366 53.4146 32.834 53.4146 33.338C53.4146 33.854 53.5286 34.328 53.7566 34.76C53.9846 35.18 54.2906 35.516 54.6746 35.768C55.0706 36.008 55.5206 36.128 56.0246 36.128C56.4806 36.128 56.9306 35.978 57.3746 35.678C57.8306 35.378 58.1426 35 58.3106 34.544ZM67.4642 38.18C66.4442 38.18 65.5622 37.958 64.8182 37.514C64.0862 37.07 63.5162 36.482 63.1082 35.75C62.7002 35.006 62.4962 34.202 62.4962 33.338C62.4962 32.45 62.6942 31.634 63.0902 30.89C63.4982 30.134 64.0742 29.534 64.8182 29.09C65.5622 28.634 66.4502 28.406 67.4822 28.406C68.5142 28.406 69.3962 28.634 70.1282 29.09C70.8602 29.534 71.4182 30.128 71.8022 30.872C72.1982 31.604 72.3962 32.396 72.3962 33.248C72.3962 33.56 72.3782 33.83 72.3422 34.058H65.0522C65.1122 34.79 65.3822 35.366 65.8622 35.786C66.3542 36.206 66.9182 36.416 67.5542 36.416C68.0342 36.416 68.4842 36.302 68.9042 36.074C69.3362 35.834 69.6302 35.522 69.7862 35.138L71.8562 35.714C71.5082 36.434 70.9502 37.028 70.1822 37.496C69.4142 37.952 68.5082 38.18 67.4642 38.18ZM64.9982 32.528H69.9302C69.8582 31.82 69.5882 31.25 69.1202 30.818C68.6642 30.374 68.1062 30.152 67.4462 30.152C66.7982 30.152 66.2402 30.374 65.7722 30.818C65.3162 31.25 65.0582 31.82 64.9982 32.528ZM79.4816 30.656C78.7496 30.656 78.0956 30.8 77.5196 31.088C76.9436 31.364 76.5296 31.766 76.2776 32.294V38H73.8656V28.568H76.0796V30.584C76.4036 29.936 76.8236 29.426 77.3396 29.054C77.8676 28.682 78.4196 28.478 78.9956 28.442C79.2476 28.442 79.4096 28.448 79.4816 28.46V30.656ZM87.4644 29.792V38H84.9804V25.22H86.9604L93.5664 33.644V25.238H96.0504V38H93.9804L87.4644 29.792ZM102.673 38.18C101.641 38.18 100.753 37.958 100.009 37.514C99.2768 37.058 98.7128 36.458 98.3168 35.714C97.9208 34.97 97.7228 34.166 97.7228 33.302C97.7228 32.426 97.9208 31.616 98.3168 30.872C98.7248 30.128 99.2948 29.534 100.027 29.09C100.771 28.634 101.653 28.406 102.673 28.406C103.693 28.406 104.569 28.634 105.301 29.09C106.045 29.534 106.615 30.128 107.011 30.872C107.407 31.616 107.605 32.426 107.605 33.302C107.605 34.166 107.407 34.97 107.011 35.714C106.615 36.458 106.045 37.058 105.301 37.514C104.569 37.958 103.693 38.18 102.673 38.18ZM100.207 33.302C100.207 33.854 100.315 34.346 100.531 34.778C100.747 35.198 101.041 35.528 101.413 35.768C101.785 36.008 102.205 36.128 102.673 36.128C103.129 36.128 103.543 36.008 103.915 35.768C104.287 35.516 104.581 35.18 104.797 34.76C105.025 34.328 105.139 33.836 105.139 33.284C105.139 32.744 105.025 32.264 104.797 31.844C104.581 31.412 104.287 31.076 103.915 30.836C103.543 30.584 103.129 30.458 102.673 30.458C102.205 30.458 101.785 30.584 101.413 30.836C101.041 31.076 100.747 31.412 100.531 31.844C100.315 32.264 100.207 32.75 100.207 33.302ZM120.616 28.568H122.902L118.96 38H116.944L115.36 33.95L113.812 38H111.778L107.854 28.568H110.122L112.93 35.696L114.028 32.618L112.39 28.586H114.388L115.36 31.466L116.35 28.586H118.348L116.71 32.618L117.826 35.696L120.616 28.568Z" fill="white"/>
</g>
<defs>
<filter id="filter0_d_64_94" x="0" y="0" width="161" height="71" filterUnits="userSpaceOnUse" color-interpolation-filters="sRGB">
<feFlood flood-opacity="0" result="BackgroundImageFix"/>
<feColorMatrix in="SourceAlpha" type="matrix" values="0 0 0 0 0 0 0 0 0 0 0 0 0 0 0 0 0 0 127 0" result="hardAlpha"/>
<feOffset dx="8" dy="8"/>
<feComposite in2="hardAlpha" operator="out"/>
<feColorMatrix type="matrix" values="0 0 0 0 0.317636 0 0 0 0 0.783333 0 0 0 0 0.0815973 0 0 0 1 0"/>
<feBlend mode="normal" in2="BackgroundImageFix" result="effect1_dropShadow_64_94"/>
<feBlend mode="normal" in="SourceGraphic" in2="effect1_dropShadow_64_94" result="shape"/>
</filter>
</defs>
</svg>
