<svg width="693" height="216" viewBox="0 0 693 216" fill="none" xmlns="http://www.w3.org/2000/svg">
<path d="M4.46804 59V1.90722H28.833C31.567 1.90722 34.0598 2.4701 36.3113 3.59588C38.6165 4.66804 40.6 6.14227 42.2619 8.01856C43.9237 9.84124 45.2103 11.9052 46.1217 14.2103C47.033 16.5155 47.4887 18.8474 47.4887 21.2062C47.4887 24.5299 46.7113 27.666 45.1567 30.6144C43.6557 33.5629 41.5381 35.9753 38.8041 37.8515C36.0701 39.6742 32.8804 40.5856 29.2351 40.5856H17.6557V59H4.46804ZM17.6557 29.0866H28.4309C29.9856 29.0866 31.3258 28.4165 32.4515 27.0763C33.5773 25.7361 34.1402 23.7794 34.1402 21.2062C34.1402 18.5794 33.4701 16.6495 32.1299 15.4165C30.8433 14.1299 29.4495 13.4866 27.9485 13.4866H17.6557V29.0866ZM53.3625 0.298969H66.2285V43.9629C66.2285 45.732 66.5502 46.9918 67.1935 47.7423C67.8368 48.4928 68.7481 48.868 69.9275 48.868C70.7316 48.868 71.5357 48.7608 72.3398 48.5464C73.1976 48.2784 73.9481 47.9835 74.5914 47.6619L76.2801 57.3113C74.6718 58.0619 72.8223 58.6515 70.7316 59.0804C68.6409 59.5093 66.6842 59.7237 64.8615 59.7237C61.2161 59.7237 58.3749 58.7588 56.3378 56.8289C54.3543 54.899 53.3625 52.1113 53.3625 48.466V0.298969ZM77.8047 46.3753C77.8047 43.5876 78.5821 41.1485 80.1367 39.0577C81.6913 36.967 83.8357 35.332 86.5697 34.1526C89.3037 32.9196 92.4398 32.3031 95.9779 32.3031C97.6934 32.3031 99.3821 32.4639 101.044 32.7856C102.706 33.0536 104.153 33.4557 105.386 33.9918V32.1423C105.386 27.3711 102.572 24.9856 96.9429 24.9856C94.5841 24.9856 92.3594 25.3876 90.2687 26.1918C88.2316 26.9959 86.0604 28.1485 83.7553 29.6495L79.8955 21.4474C85.4707 17.8021 91.5821 15.9794 98.2295 15.9794C104.555 15.9794 109.46 17.5072 112.945 20.5629C116.483 23.5649 118.252 27.934 118.252 33.6701V44.6866C118.252 45.9732 118.44 46.8845 118.815 47.4206C119.244 47.9567 119.968 48.2515 120.986 48.3052V59C119.86 59.2144 118.842 59.3753 117.931 59.4825C117.019 59.5897 116.215 59.6433 115.518 59.6433C113.106 59.6433 111.256 59.1608 109.97 58.1959C108.737 57.2309 107.959 55.9175 107.638 54.2557L107.397 52.4062C105.52 54.8186 103.269 56.668 100.642 57.9546C98.0151 59.1876 95.3078 59.8041 92.5202 59.8041C89.7326 59.8041 87.213 59.2144 84.9614 58.0351C82.7635 56.8557 81.0212 55.2742 79.7346 53.2907C78.448 51.2536 77.8047 48.9485 77.8047 46.3753ZM103.376 47.9835C104.716 46.9113 105.386 45.8124 105.386 44.6866V40.9072C104.26 40.4784 103.027 40.1567 101.687 39.9423C100.401 39.6742 99.2212 39.5402 98.1491 39.5402C95.7367 39.5402 93.7532 40.0763 92.1986 41.1485C90.6975 42.2206 89.947 43.5876 89.947 45.2495C89.947 46.6969 90.5099 47.9567 91.6357 49.0289C92.8151 50.0474 94.3697 50.5567 96.2996 50.5567C97.5862 50.5567 98.8728 50.3155 100.159 49.833C101.446 49.3505 102.518 48.734 103.376 47.9835ZM168.264 59H155.398V35.2783C155.398 32.4907 154.862 30.4804 153.789 29.2474C152.771 27.9608 151.404 27.3175 149.688 27.3175C147.919 27.3175 146.123 28.0144 144.301 29.4082C142.478 30.8021 141.191 32.5979 140.441 34.7959V59H127.575V16.7835H139.154V23.8598C140.709 21.3938 142.907 19.4639 145.748 18.0701C148.589 16.6763 151.86 15.9794 155.558 15.9794C158.293 15.9794 160.49 16.4887 162.152 17.5072C163.868 18.4722 165.154 19.7588 166.012 21.367C166.923 22.9216 167.513 24.6371 167.781 26.5134C168.103 28.3897 168.264 30.2124 168.264 31.9814V59ZM204.074 56.7485C202.304 57.499 200.267 58.1959 197.962 58.8392C195.711 59.4825 193.432 59.8041 191.127 59.8041C188.983 59.8041 187.026 59.4557 185.257 58.7588C183.488 58.0082 182.067 56.8021 180.995 55.1402C179.923 53.4784 179.387 51.2804 179.387 48.5464V26.5134H173.999V16.7835H179.387V3.35464H192.253V16.7835H200.857V26.5134H192.253V44.1237C192.253 45.5175 192.601 46.5361 193.298 47.1794C193.995 47.7691 194.88 48.0639 195.952 48.0639C196.917 48.0639 197.909 47.9031 198.927 47.5814C199.946 47.2598 200.83 46.9113 201.581 46.5361L204.074 56.7485ZM225.201 46.3753C225.201 43.5876 225.979 41.1485 227.533 39.0577C229.088 36.967 231.232 35.332 233.966 34.1526C236.7 32.9196 239.836 32.3031 243.374 32.3031C245.09 32.3031 246.779 32.4639 248.44 32.7856C250.102 33.0536 251.55 33.4557 252.783 33.9918V32.1423C252.783 27.3711 249.968 24.9856 244.339 24.9856C241.981 24.9856 239.756 25.3876 237.665 26.1918C235.628 26.9959 233.457 28.1485 231.152 29.6495L227.292 21.4474C232.867 17.8021 238.979 15.9794 245.626 15.9794C251.952 15.9794 256.857 17.5072 260.341 20.5629C263.88 23.5649 265.649 27.934 265.649 33.6701V44.6866C265.649 45.9732 265.836 46.8845 266.212 47.4206C266.64 47.9567 267.364 48.2515 268.383 48.3052V59C267.257 59.2144 266.238 59.3753 265.327 59.4825C264.416 59.5897 263.612 59.6433 262.915 59.6433C260.502 59.6433 258.653 59.1608 257.366 58.1959C256.133 57.2309 255.356 55.9175 255.034 54.2557L254.793 52.4062C252.917 54.8186 250.665 56.668 248.038 57.9546C245.412 59.1876 242.704 59.8041 239.917 59.8041C237.129 59.8041 234.609 59.2144 232.358 58.0351C230.16 56.8557 228.418 55.2742 227.131 53.2907C225.845 51.2536 225.201 48.9485 225.201 46.3753ZM250.772 47.9835C252.113 46.9113 252.783 45.8124 252.783 44.6866V40.9072C251.657 40.4784 250.424 40.1567 249.084 39.9423C247.797 39.6742 246.618 39.5402 245.546 39.5402C243.133 39.5402 241.15 40.0763 239.595 41.1485C238.094 42.2206 237.344 43.5876 237.344 45.2495C237.344 46.6969 237.906 47.9567 239.032 49.0289C240.212 50.0474 241.766 50.5567 243.696 50.5567C244.983 50.5567 246.269 50.3155 247.556 49.833C248.842 49.3505 249.915 48.734 250.772 47.9835ZM321.08 56.7485C319.311 57.499 317.274 58.1959 314.968 58.8392C312.717 59.4825 310.439 59.8041 308.133 59.8041C305.989 59.8041 304.032 59.4557 302.263 58.7588C300.494 58.0082 299.074 56.8021 298.001 55.1402C296.929 53.4784 296.393 51.2804 296.393 48.5464V26.5134H291.006V16.7835H296.393V3.35464H309.259V16.7835H317.863V26.5134H309.259V44.1237C309.259 45.5175 309.608 46.5361 310.305 47.1794C311.001 47.7691 311.886 48.0639 312.958 48.0639C313.923 48.0639 314.915 47.9031 315.933 47.5814C316.952 47.2598 317.837 46.9113 318.587 46.5361L321.08 56.7485ZM352.87 27.8C349.761 27.8536 346.947 28.3629 344.427 29.3278C341.907 30.2928 340.085 31.7402 338.959 33.6701V59H326.093V16.7835H337.914V25.3072C339.361 22.466 341.237 20.2412 343.543 18.633C345.848 17.0247 348.26 16.1938 350.78 16.1402C351.852 16.1402 352.549 16.167 352.87 16.2206V27.8ZM378.159 59.8041C373.388 59.8041 369.313 58.8124 365.936 56.8289C362.559 54.8454 359.959 52.2186 358.136 48.9485C356.367 45.6784 355.482 42.1402 355.482 38.334C355.482 34.2598 356.367 30.534 358.136 27.1567C359.905 23.7794 362.478 21.0722 365.856 19.0351C369.233 16.9979 373.334 15.9794 378.159 15.9794C382.93 15.9794 387.004 16.9979 390.381 19.0351C393.759 21.0722 396.305 23.7526 398.021 27.0763C399.79 30.4 400.674 33.9649 400.674 37.7711C400.674 39.3258 400.567 40.6928 400.353 41.8722H369.153C369.367 44.7134 370.386 46.8845 372.208 48.3856C374.085 49.833 376.202 50.5567 378.561 50.5567C380.437 50.5567 382.233 50.101 383.948 49.1897C385.664 48.2783 386.843 47.0454 387.487 45.4907L398.423 48.5464C396.761 51.8701 394.161 54.5773 390.623 56.668C387.138 58.7588 382.984 59.8041 378.159 59.8041ZM368.831 33.9918H387.165C386.897 31.3113 385.905 29.1938 384.19 27.6392C382.528 26.0309 380.464 25.2268 377.998 25.2268C375.532 25.2268 373.441 26.0309 371.726 27.6392C370.064 29.2474 369.099 31.3649 368.831 33.9918ZM426.689 59.8041C421.918 59.8041 417.844 58.8124 414.466 56.8289C411.089 54.8454 408.489 52.2186 406.666 48.9485C404.897 45.6784 404.013 42.1402 404.013 38.334C404.013 34.2598 404.897 30.534 406.666 27.1567C408.435 23.7794 411.008 21.0722 414.386 19.0351C417.763 16.9979 421.864 15.9794 426.689 15.9794C431.46 15.9794 435.534 16.9979 438.912 19.0351C442.289 21.0722 444.835 23.7526 446.551 27.0763C448.32 30.4 449.204 33.9649 449.204 37.7711C449.204 39.3258 449.097 40.6928 448.883 41.8722H417.683C417.897 44.7134 418.916 46.8845 420.738 48.3856C422.615 49.833 424.732 50.5567 427.091 50.5567C428.967 50.5567 430.763 50.101 432.479 49.1897C434.194 48.2783 435.373 47.0454 436.017 45.4907L446.953 48.5464C445.291 51.8701 442.691 54.5773 439.153 56.668C435.668 58.7588 431.514 59.8041 426.689 59.8041ZM417.361 33.9918H435.695C435.427 31.3113 434.435 29.1938 432.72 27.6392C431.058 26.0309 428.994 25.2268 426.528 25.2268C424.062 25.2268 421.971 26.0309 420.256 27.6392C418.594 29.2474 417.629 31.3649 417.361 33.9918ZM501.144 56.7485C499.375 57.499 497.338 58.1959 495.032 58.8392C492.781 59.4825 490.503 59.8041 488.197 59.8041C486.053 59.8041 484.096 59.4557 482.327 58.7588C480.558 58.0082 479.138 56.8021 478.065 55.1402C476.993 53.4784 476.457 51.2804 476.457 48.5464V26.5134H471.07V16.7835H476.457V3.35464H489.323V16.7835H497.927V26.5134H489.323V44.1237C489.323 45.5175 489.672 46.5361 490.369 47.1794C491.065 47.7691 491.95 48.0639 493.022 48.0639C493.987 48.0639 494.979 47.9031 495.997 47.5814C497.016 47.2598 497.901 46.9113 498.651 46.5361L501.144 56.7485ZM525.789 59.8041C520.964 59.8041 516.863 58.7856 513.486 56.7485C510.162 54.7113 507.616 52.0309 505.847 48.7072C504.078 45.3835 503.193 41.7918 503.193 37.932C503.193 34.0186 504.078 30.4 505.847 27.0763C507.616 23.7526 510.189 21.0722 513.566 19.0351C516.944 16.9979 521.018 15.9794 525.789 15.9794C530.56 15.9794 534.634 16.9979 538.012 19.0351C541.389 21.0722 543.962 23.7526 545.731 27.0763C547.5 30.4 548.385 34.0186 548.385 37.932C548.385 41.7918 547.5 45.3835 545.731 48.7072C543.962 52.0309 541.389 54.7113 538.012 56.7485C534.634 58.7856 530.56 59.8041 525.789 59.8041ZM516.381 37.932C516.381 41.2021 517.265 43.8557 519.034 45.8928C520.857 47.9299 523.109 48.9485 525.789 48.9485C528.416 48.9485 530.614 47.9299 532.383 45.8928C534.205 43.8557 535.117 41.2021 535.117 37.932C535.117 34.6619 534.205 32.0082 532.383 29.9711C530.614 27.934 528.416 26.9155 525.789 26.9155C523.109 26.9155 520.857 27.934 519.034 29.9711C517.265 32.0082 516.381 34.6619 516.381 37.932ZM552.353 37.8515C552.353 33.7773 553.131 30.1052 554.685 26.8351C556.294 23.5113 558.491 20.8845 561.279 18.9546C564.12 16.9711 567.364 15.9794 571.009 15.9794C573.957 15.9794 576.611 16.7031 578.97 18.1505C581.382 19.5443 583.232 21.3938 584.518 23.699V0.298969H597.384V44.6866C597.384 45.9732 597.572 46.8845 597.947 47.4206C598.376 47.9567 599.1 48.2515 600.118 48.3052V59C597.867 59.4289 596.044 59.6433 594.65 59.6433C592.452 59.6433 590.656 59.1608 589.263 58.1959C587.869 57.2309 587.038 55.8907 586.77 54.1753L586.529 52.0041C585.028 54.6309 582.99 56.5876 580.417 57.8742C577.844 59.1608 575.137 59.8041 572.296 59.8041C568.436 59.8041 565.005 58.866 562.003 56.9897C559.001 55.0598 556.642 52.433 554.927 49.1093C553.211 45.7856 552.353 42.033 552.353 37.8515ZM584.599 43.0783V34.233C583.795 32.0887 582.481 30.3464 580.658 29.0062C578.889 27.6124 577.04 26.9155 575.11 26.9155C573.287 26.9155 571.652 27.4247 570.205 28.4433C568.757 29.4619 567.632 30.8289 566.828 32.5443C566.023 34.2598 565.621 36.1093 565.621 38.0928C565.621 41.2021 566.56 43.8021 568.436 45.8928C570.366 47.9299 572.805 48.9485 575.753 48.9485C577.522 48.9485 579.211 48.4392 580.819 47.4206C582.481 46.3485 583.741 44.901 584.599 43.0783ZM604.726 46.3753C604.726 43.5876 605.503 41.1485 607.058 39.0577C608.612 36.967 610.757 35.332 613.491 34.1526C616.225 32.9196 619.361 32.3031 622.899 32.3031C624.614 32.3031 626.303 32.4639 627.965 32.7856C629.627 33.0536 631.074 33.4557 632.307 33.9918V32.1423C632.307 27.3711 629.493 24.9856 623.864 24.9856C621.505 24.9856 619.28 25.3876 617.19 26.1918C615.152 26.9959 612.981 28.1485 610.676 29.6495L606.816 21.4474C612.392 17.8021 618.503 15.9794 625.15 15.9794C631.476 15.9794 636.381 17.5072 639.866 20.5629C643.404 23.5649 645.173 27.934 645.173 33.6701V44.6866C645.173 45.9732 645.361 46.8845 645.736 47.4206C646.165 47.9567 646.889 48.2515 647.907 48.3052V59C646.781 59.2144 645.763 59.3753 644.851 59.4825C643.94 59.5897 643.136 59.6433 642.439 59.6433C640.027 59.6433 638.177 59.1608 636.891 58.1959C635.658 57.2309 634.88 55.9175 634.559 54.2557L634.317 52.4062C632.441 54.8186 630.19 56.668 627.563 57.9546C624.936 59.1876 622.229 59.8041 619.441 59.8041C616.653 59.8041 614.134 59.2144 611.882 58.0351C609.684 56.8557 607.942 55.2742 606.656 53.2907C605.369 51.2536 604.726 48.9485 604.726 46.3753ZM630.297 47.9835C631.637 46.9113 632.307 45.8124 632.307 44.6866V40.9072C631.181 40.4784 629.948 40.1567 628.608 39.9423C627.321 39.6742 626.142 39.5402 625.07 39.5402C622.658 39.5402 620.674 40.0763 619.119 41.1485C617.618 42.2206 616.868 43.5876 616.868 45.2495C616.868 46.6969 617.431 47.9567 618.557 49.0289C619.736 50.0474 621.291 50.5567 623.22 50.5567C624.507 50.5567 625.794 50.3155 627.08 49.833C628.367 49.3505 629.439 48.734 630.297 47.9835ZM653.011 65.3526C655.209 66.0495 657.059 66.3979 658.56 66.3979C660.061 66.3979 661.24 65.8619 662.098 64.7897C663.009 63.7175 663.813 61.7876 664.51 59L648.428 16.7835H661.696L671.506 45.8124L679.869 16.7835H692.011L675.929 65.8351C674.803 69.3196 672.766 72.134 669.818 74.2784C666.923 76.4763 663.519 77.5753 659.605 77.5753C657.354 77.5753 655.156 77.1732 653.011 76.3691V65.3526Z" fill="#418A1C"/>
<path d="M2.31701 101.719V92.9742H11.9665V101.719H2.31701ZM2.31701 137V105.338H11.9665V137H2.31701ZM39.0774 135.311C37.7506 135.874 36.2228 136.397 34.4939 136.879C32.8052 137.362 31.0965 137.603 29.3676 137.603C27.7594 137.603 26.2918 137.342 24.965 136.819C23.6382 136.256 22.5728 135.352 21.7686 134.105C20.9645 132.859 20.5625 131.21 20.5625 129.16V112.635H16.5217V105.338H20.5625V95.266H30.2119V105.338H36.665V112.635H30.2119V125.843C30.2119 126.888 30.4733 127.652 30.996 128.135C31.5186 128.577 32.182 128.798 32.9862 128.798C33.7099 128.798 34.4537 128.677 35.2176 128.436C35.9815 128.195 36.6449 127.934 37.2078 127.652L39.0774 135.311ZM94.2844 105.338H103.451L90.3643 137H82.4035L77.5787 124.094L72.754 137H64.7932L51.7061 105.338H60.8128L69.3164 127.893L72.3318 119.088L66.6628 105.338H74.5633L77.5787 114.866L80.5942 105.338H88.4344L82.8256 119.088L85.8411 127.893L94.2844 105.338ZM106.504 101.719V92.9742H116.153V101.719H106.504ZM106.504 137V105.338H116.153V137H106.504ZM122.638 92.9742H132.288V125.722C132.288 127.049 132.529 127.994 133.011 128.557C133.494 129.12 134.177 129.401 135.062 129.401C135.665 129.401 136.268 129.321 136.871 129.16C137.515 128.959 138.077 128.738 138.56 128.496L139.826 135.734C138.62 136.296 137.233 136.739 135.665 137.06C134.097 137.382 132.629 137.543 131.262 137.543C128.528 137.543 126.398 136.819 124.87 135.372C123.382 133.924 122.638 131.834 122.638 129.099V92.9742ZM142.84 92.9742H152.489V125.722C152.489 127.049 152.73 127.994 153.213 128.557C153.695 129.12 154.379 129.401 155.263 129.401C155.866 129.401 156.469 129.321 157.072 129.16C157.716 128.959 158.279 128.738 158.761 128.496L160.028 135.734C158.821 136.296 157.434 136.739 155.866 137.06C154.298 137.382 152.831 137.543 151.464 137.543C148.73 137.543 146.599 136.819 145.071 135.372C143.583 133.924 142.84 131.834 142.84 129.099V92.9742ZM206.223 137H196.573V119.209C196.573 117.158 196.151 115.651 195.307 114.686C194.503 113.721 193.417 113.238 192.05 113.238C190.924 113.238 189.658 113.761 188.25 114.806C186.883 115.811 185.919 117.158 185.356 118.847V137H175.706V92.9742H185.356V110.645C186.481 108.755 188.009 107.308 189.939 106.303C191.869 105.257 193.98 104.735 196.272 104.735C198.403 104.735 200.131 105.096 201.458 105.82C202.785 106.544 203.79 107.509 204.474 108.715C205.157 109.881 205.62 111.168 205.861 112.575C206.102 113.982 206.223 115.369 206.223 116.736V137ZM227.771 137.603C224.193 137.603 221.137 136.859 218.604 135.372C216.071 133.884 214.121 131.914 212.754 129.461C211.428 127.009 210.764 124.355 210.764 121.501C210.764 118.445 211.428 115.651 212.754 113.118C214.081 110.585 216.011 108.554 218.544 107.026C221.077 105.498 224.153 104.735 227.771 104.735C231.35 104.735 234.405 105.498 236.938 107.026C239.471 108.554 241.381 110.564 242.668 113.057C243.995 115.55 244.658 118.224 244.658 121.078C244.658 122.244 244.578 123.27 244.417 124.154H221.017C221.178 126.285 221.942 127.913 223.309 129.039C224.716 130.125 226.304 130.668 228.073 130.668C229.48 130.668 230.827 130.326 232.114 129.642C233.4 128.959 234.285 128.034 234.767 126.868L242.969 129.16C241.723 131.653 239.773 133.683 237.119 135.251C234.506 136.819 231.39 137.603 227.771 137.603ZM220.776 118.244H234.526C234.325 116.234 233.581 114.645 232.295 113.479C231.048 112.273 229.5 111.67 227.651 111.67C225.801 111.67 224.233 112.273 222.947 113.479C221.7 114.686 220.977 116.274 220.776 118.244ZM248.911 92.9742H258.56V125.722C258.56 127.049 258.802 127.994 259.284 128.557C259.766 129.12 260.45 129.401 261.335 129.401C261.938 129.401 262.541 129.321 263.144 129.16C263.787 128.959 264.35 128.738 264.832 128.496L266.099 135.734C264.893 136.296 263.506 136.739 261.938 137.06C260.37 137.382 258.902 137.543 257.535 137.543C254.801 137.543 252.67 136.819 251.142 135.372C249.655 133.924 248.911 131.834 248.911 129.099V92.9742ZM289.255 137.603C286.883 137.603 284.792 137.101 282.983 136.095C281.214 135.05 279.847 133.643 278.882 131.874V149.846H269.233V105.338H277.616V110.464C278.782 108.655 280.249 107.247 282.018 106.242C283.787 105.237 285.858 104.735 288.23 104.735C291.045 104.735 293.557 105.478 295.769 106.966C298.02 108.413 299.769 110.363 301.016 112.816C302.302 115.269 302.946 118.023 302.946 121.078C302.946 124.214 302.363 127.029 301.197 129.522C300.031 132.014 298.402 133.985 296.312 135.432C294.261 136.879 291.909 137.603 289.255 137.603ZM285.999 129.461C287.366 129.461 288.592 129.079 289.678 128.315C290.763 127.511 291.607 126.486 292.21 125.24C292.814 123.953 293.115 122.546 293.115 121.018C293.115 118.686 292.391 116.756 290.944 115.228C289.537 113.701 287.728 112.937 285.516 112.937C284.189 112.937 282.903 113.339 281.656 114.143C280.45 114.907 279.525 115.952 278.882 117.279V123.792C279.525 125.401 280.49 126.747 281.777 127.833C283.104 128.919 284.511 129.461 285.999 129.461ZM321.584 125.602V105.338H331.233V123.491C331.233 127.471 332.701 129.461 335.636 129.461C336.923 129.461 338.169 129.12 339.375 128.436C340.581 127.712 341.647 126.526 342.572 124.878V105.338H352.221V126.265C352.221 127.23 352.362 127.913 352.643 128.315C352.965 128.718 353.508 128.939 354.272 128.979V137C353.347 137.161 352.563 137.281 351.92 137.362C351.276 137.442 350.693 137.482 350.171 137.482C346.713 137.482 344.743 136.136 344.26 133.442L344.079 131.512C342.632 133.603 340.823 135.151 338.651 136.156C336.521 137.121 334.128 137.603 331.475 137.603C328.258 137.603 325.806 136.578 324.117 134.527C322.428 132.477 321.584 129.502 321.584 125.602ZM371.819 137.603C369.085 137.603 366.431 137.161 363.858 136.276C361.325 135.352 359.174 134.045 357.405 132.356L360.722 126.265C364.622 129.12 368.22 130.547 371.517 130.547C372.764 130.547 373.729 130.346 374.412 129.944C375.096 129.542 375.437 128.919 375.437 128.074C375.437 127.19 374.975 126.566 374.05 126.205C373.125 125.803 371.758 125.34 369.949 124.818C367.537 124.013 365.526 123.229 363.918 122.465C362.31 121.702 361.104 120.777 360.3 119.691C359.496 118.606 359.093 117.158 359.093 115.349C359.093 112.173 360.28 109.62 362.652 107.69C365.024 105.72 368.24 104.735 372.301 104.735C374.472 104.735 376.583 105.076 378.634 105.76C380.724 106.443 382.674 107.589 384.484 109.197L380.744 115.228C378.935 113.982 377.327 113.077 375.92 112.514C374.513 111.952 373.146 111.67 371.819 111.67C370.773 111.67 369.889 111.871 369.165 112.273C368.441 112.635 368.08 113.278 368.08 114.203C368.08 115.088 368.482 115.751 369.286 116.193C370.09 116.595 371.336 117.038 373.025 117.52C375.598 118.284 377.749 119.068 379.478 119.872C381.247 120.636 382.554 121.601 383.398 122.767C384.283 123.893 384.725 125.401 384.725 127.29C384.725 130.507 383.559 133.04 381.227 134.889C378.895 136.698 375.759 137.603 371.819 137.603ZM422.748 137.603C420.336 137.603 418.225 137.101 416.416 136.095C414.606 135.05 413.179 133.603 412.134 131.753V137H403.751V92.9742H413.4V110.524C414.405 108.715 415.792 107.308 417.561 106.303C419.33 105.257 421.401 104.735 423.773 104.735C426.467 104.735 428.839 105.478 430.89 106.966C432.98 108.454 434.609 110.444 435.775 112.937C436.941 115.429 437.524 118.224 437.524 121.32C437.524 124.375 436.88 127.149 435.594 129.642C434.307 132.095 432.538 134.045 430.287 135.492C428.075 136.899 425.562 137.603 422.748 137.603ZM420.034 129.461C422.286 129.461 424.115 128.677 425.522 127.109C426.929 125.541 427.633 123.611 427.633 121.32C427.633 119.832 427.311 118.445 426.668 117.158C426.065 115.872 425.221 114.846 424.135 114.082C423.09 113.319 421.884 112.937 420.517 112.937C418.989 112.937 417.582 113.459 416.295 114.505C415.008 115.55 414.043 116.857 413.4 118.425V125.059C414.043 126.426 414.968 127.511 416.174 128.315C417.421 129.079 418.707 129.461 420.034 129.461ZM462.41 113.6C460.078 113.64 457.968 114.022 456.078 114.746C454.188 115.47 452.821 116.555 451.977 118.003V137H442.327V105.338H451.193V111.73C452.278 109.599 453.686 107.931 455.414 106.725C457.143 105.519 458.953 104.895 460.842 104.855C461.646 104.855 462.169 104.875 462.41 104.915V113.6ZM481.377 137.603C477.798 137.603 474.743 136.859 472.21 135.372C469.677 133.884 467.727 131.914 466.36 129.461C465.033 127.009 464.369 124.355 464.369 121.501C464.369 118.445 465.033 115.651 466.36 113.118C467.686 110.585 469.616 108.554 472.149 107.026C474.682 105.498 477.758 104.735 481.377 104.735C484.955 104.735 488.011 105.498 490.544 107.026C493.077 108.554 494.986 110.564 496.273 113.057C497.6 115.55 498.263 118.224 498.263 121.078C498.263 122.244 498.183 123.27 498.022 124.154H474.622C474.783 126.285 475.547 127.913 476.914 129.039C478.321 130.125 479.909 130.668 481.678 130.668C483.085 130.668 484.432 130.326 485.719 129.642C487.006 128.959 487.89 128.034 488.373 126.868L496.575 129.16C495.328 131.653 493.378 133.683 490.725 135.251C488.111 136.819 484.995 137.603 481.377 137.603ZM474.381 118.244H488.131C487.93 116.234 487.186 114.645 485.9 113.479C484.653 112.273 483.106 111.67 481.256 111.67C479.407 111.67 477.838 112.273 476.552 113.479C475.306 114.686 474.582 116.274 474.381 118.244ZM500.646 127.531C500.646 125.441 501.229 123.611 502.395 122.043C503.561 120.475 505.17 119.249 507.22 118.364C509.271 117.44 511.623 116.977 514.276 116.977C515.563 116.977 516.829 117.098 518.076 117.339C519.322 117.54 520.408 117.842 521.332 118.244V116.857C521.332 113.278 519.222 111.489 515 111.489C513.231 111.489 511.562 111.791 509.994 112.394C508.467 112.997 506.838 113.861 505.109 114.987L502.214 108.836C506.396 106.102 510.979 104.735 515.965 104.735C520.709 104.735 524.388 105.88 527.002 108.172C529.655 110.424 530.982 113.701 530.982 118.003V126.265C530.982 127.23 531.123 127.913 531.404 128.315C531.726 128.718 532.269 128.939 533.032 128.979V137C532.188 137.161 531.424 137.281 530.741 137.362C530.057 137.442 529.454 137.482 528.931 137.482C527.122 137.482 525.735 137.121 524.77 136.397C523.845 135.673 523.262 134.688 523.021 133.442L522.84 132.055C521.433 133.864 519.744 135.251 517.774 136.216C515.804 137.141 513.774 137.603 511.683 137.603C509.592 137.603 507.703 137.161 506.014 136.276C504.365 135.392 503.059 134.206 502.094 132.718C501.129 131.19 500.646 129.461 500.646 127.531ZM519.825 128.738C520.83 127.934 521.332 127.109 521.332 126.265V123.43C520.488 123.109 519.563 122.868 518.558 122.707C517.593 122.506 516.709 122.405 515.905 122.405C514.095 122.405 512.608 122.807 511.442 123.611C510.316 124.415 509.753 125.441 509.753 126.687C509.753 127.773 510.175 128.718 511.02 129.522C511.904 130.286 513.07 130.668 514.518 130.668C515.482 130.668 516.447 130.487 517.412 130.125C518.377 129.763 519.181 129.301 519.825 128.738ZM558.185 135.311C556.858 135.874 555.33 136.397 553.601 136.879C551.913 137.362 550.204 137.603 548.475 137.603C546.867 137.603 545.399 137.342 544.072 136.819C542.746 136.256 541.68 135.352 540.876 134.105C540.072 132.859 539.67 131.21 539.67 129.16V112.635H535.629V105.338H539.67V95.266H549.319V105.338H555.772V112.635H549.319V125.843C549.319 126.888 549.581 127.652 550.103 128.135C550.626 128.577 551.289 128.798 552.094 128.798C552.817 128.798 553.561 128.677 554.325 128.436C555.089 128.195 555.752 127.934 556.315 127.652L558.185 135.311ZM592.461 137H582.812V119.209C582.812 117.158 582.389 115.651 581.545 114.686C580.741 113.721 579.655 113.238 578.288 113.238C577.163 113.238 575.896 113.761 574.489 114.806C573.122 115.811 572.157 117.158 571.594 118.847V137H561.945V92.9742H571.594V110.645C572.72 108.755 574.248 107.308 576.178 106.303C578.108 105.257 580.218 104.735 582.51 104.735C584.641 104.735 586.37 105.096 587.697 105.82C589.024 106.544 590.029 107.509 590.712 108.715C591.396 109.881 591.858 111.168 592.099 112.575C592.341 113.982 592.461 115.369 592.461 116.736V137ZM614.01 137.603C610.432 137.603 607.376 136.859 604.843 135.372C602.31 133.884 600.36 131.914 598.993 129.461C597.666 127.009 597.003 124.355 597.003 121.501C597.003 118.445 597.666 115.651 598.993 113.118C600.32 110.585 602.25 108.554 604.783 107.026C607.316 105.498 610.391 104.735 614.01 104.735C617.588 104.735 620.644 105.498 623.177 107.026C625.71 108.554 627.62 110.564 628.906 113.057C630.233 115.55 630.897 118.224 630.897 121.078C630.897 122.244 630.816 123.27 630.655 124.154H607.255C607.416 126.285 608.18 127.913 609.547 129.039C610.954 130.125 612.542 130.668 614.311 130.668C615.719 130.668 617.066 130.326 618.352 129.642C619.639 128.959 620.523 128.034 621.006 126.868L629.208 129.16C627.961 131.653 626.011 133.683 623.358 135.251C620.744 136.819 617.628 137.603 614.01 137.603ZM607.014 118.244H620.765C620.564 116.234 619.82 114.645 618.533 113.479C617.287 112.273 615.739 111.67 613.889 111.67C612.04 111.67 610.472 112.273 609.185 113.479C607.939 114.686 607.215 116.274 607.014 118.244ZM22.8222 213.311C21.4954 213.874 19.9675 214.397 18.2387 214.879C16.55 215.362 14.8412 215.603 13.1124 215.603C11.5041 215.603 10.0366 215.342 8.70979 214.819C7.38299 214.256 6.31753 213.352 5.5134 212.105C4.70928 210.859 4.30722 209.21 4.30722 207.16V190.635H0.266495V183.338H4.30722V173.266H13.9567V183.338H20.4098V190.635H13.9567V203.843C13.9567 204.888 14.218 205.652 14.7407 206.135C15.2634 206.577 15.9268 206.798 16.7309 206.798C17.4546 206.798 18.1985 206.677 18.9624 206.436C19.7263 206.195 20.3897 205.934 20.9526 205.652L22.8222 213.311ZM41.306 215.603C37.6875 215.603 34.6117 214.839 32.0787 213.311C29.5859 211.784 27.6761 209.773 26.3493 207.28C25.0225 204.788 24.3591 202.094 24.3591 199.199C24.3591 196.264 25.0225 193.55 26.3493 191.057C27.6761 188.564 29.606 186.554 32.139 185.026C34.672 183.498 37.7277 182.735 41.306 182.735C44.8844 182.735 47.94 183.498 50.473 185.026C53.006 186.554 54.9359 188.564 56.2627 191.057C57.5895 193.55 58.2529 196.264 58.2529 199.199C58.2529 202.094 57.5895 204.788 56.2627 207.28C54.9359 209.773 53.006 211.784 50.473 213.311C47.94 214.839 44.8844 215.603 41.306 215.603ZM34.2498 199.199C34.2498 201.652 34.9132 203.642 36.24 205.17C37.607 206.697 39.2957 207.461 41.306 207.461C43.2761 207.461 44.9246 206.697 46.2514 205.17C47.6184 203.642 48.3019 201.652 48.3019 199.199C48.3019 196.746 47.6184 194.756 46.2514 193.228C44.9246 191.701 43.2761 190.937 41.306 190.937C39.2957 190.937 37.607 191.701 36.24 193.228C34.9132 194.756 34.2498 196.746 34.2498 199.199ZM113.095 215H103.446V197.209C103.446 195.158 103.064 193.651 102.3 192.686C101.536 191.721 100.551 191.238 99.3447 191.238C98.0581 191.238 96.7916 191.761 95.5453 192.806C94.2989 193.852 93.4143 195.198 92.8916 196.847V215H83.2422V197.209C83.2422 195.118 82.8602 193.61 82.0963 192.686C81.3324 191.721 80.3473 191.238 79.1411 191.238C77.8545 191.238 76.588 191.761 75.3416 192.806C74.1355 193.852 73.2509 195.198 72.688 196.847V215H63.0386V183.338H71.7231V188.645C72.8891 186.755 74.4772 185.308 76.4875 184.303C78.4978 183.257 80.8097 182.735 83.4231 182.735C86.0365 182.735 88.0468 183.358 89.454 184.604C90.8612 185.81 91.7659 187.238 92.1679 188.886C93.3741 186.956 94.9623 185.448 96.9324 184.363C98.9427 183.277 101.194 182.735 103.687 182.735C105.697 182.735 107.306 183.116 108.512 183.88C109.758 184.604 110.703 185.569 111.346 186.775C112.03 187.981 112.492 189.288 112.733 190.695C112.975 192.062 113.095 193.409 113.095 194.736V215ZM134.479 215.603C130.861 215.603 127.785 214.839 125.252 213.311C122.759 211.784 120.849 209.773 119.522 207.28C118.196 204.788 117.532 202.094 117.532 199.199C117.532 196.264 118.196 193.55 119.522 191.057C120.849 188.564 122.779 186.554 125.312 185.026C127.845 183.498 130.901 182.735 134.479 182.735C138.057 182.735 141.113 183.498 143.646 185.026C146.179 186.554 148.109 188.564 149.436 191.057C150.763 193.55 151.426 196.264 151.426 199.199C151.426 202.094 150.763 204.788 149.436 207.28C148.109 209.773 146.179 211.784 143.646 213.311C141.113 214.839 138.057 215.603 134.479 215.603ZM127.423 199.199C127.423 201.652 128.086 203.642 129.413 205.17C130.78 206.697 132.469 207.461 134.479 207.461C136.449 207.461 138.098 206.697 139.424 205.17C140.792 203.642 141.475 201.652 141.475 199.199C141.475 196.746 140.792 194.756 139.424 193.228C138.098 191.701 136.449 190.937 134.479 190.937C132.469 190.937 130.78 191.701 129.413 193.228C128.086 194.756 127.423 196.746 127.423 199.199ZM176.295 191.6C173.963 191.64 171.852 192.022 169.962 192.746C168.072 193.47 166.705 194.555 165.861 196.003V215H156.212V183.338H165.077V189.73C166.163 187.599 167.57 185.931 169.299 184.725C171.028 183.519 172.837 182.895 174.727 182.855C175.531 182.855 176.053 182.875 176.295 182.915V191.6ZM200.442 191.6C198.11 191.64 195.999 192.022 194.109 192.746C192.22 193.47 190.853 194.555 190.008 196.003V215H180.359V183.338H189.224V189.73C190.31 187.599 191.717 185.931 193.446 184.725C195.175 183.519 196.984 182.895 198.874 182.855C199.678 182.855 200.201 182.875 200.442 182.915V191.6ZM219.348 215.603C215.729 215.603 212.654 214.839 210.121 213.311C207.628 211.784 205.718 209.773 204.391 207.28C203.064 204.788 202.401 202.094 202.401 199.199C202.401 196.264 203.064 193.55 204.391 191.057C205.718 188.564 207.648 186.554 210.181 185.026C212.714 183.498 215.77 182.735 219.348 182.735C222.926 182.735 225.982 183.498 228.515 185.026C231.048 186.554 232.978 188.564 234.305 191.057C235.631 193.55 236.295 196.264 236.295 199.199C236.295 202.094 235.631 204.788 234.305 207.28C232.978 209.773 231.048 211.784 228.515 213.311C225.982 214.839 222.926 215.603 219.348 215.603ZM212.292 199.199C212.292 201.652 212.955 203.642 214.282 205.17C215.649 206.697 217.338 207.461 219.348 207.461C221.318 207.461 222.966 206.697 224.293 205.17C225.66 203.642 226.344 201.652 226.344 199.199C226.344 196.746 225.66 194.756 224.293 193.228C222.966 191.701 221.318 190.937 219.348 190.937C217.338 190.937 215.649 191.701 214.282 193.228C212.955 194.756 212.292 196.746 212.292 199.199ZM278.982 183.338H288.149L275.061 215H267.101L262.276 202.094L257.451 215H249.49L236.403 183.338H245.51L254.014 205.893L257.029 197.088L251.36 183.338H259.26L262.276 192.866L265.291 183.338H273.132L267.523 197.088L270.538 205.893L278.982 183.338ZM287.194 215V205.17H295.095V215H287.194Z" fill="#081800"/>
</svg>
