<svg width="25" height="24" viewBox="0 0 25 24" fill="none" xmlns="http://www.w3.org/2000/svg">
<path fill-rule="evenodd" clip-rule="evenodd" d="M8.41998 5.5C6.18933 5.5 4.41998 7.30906 4.41998 9.5C4.41998 10.4282 4.79682 11.4436 5.46868 12.5105C6.1369 13.5716 7.06146 14.6274 8.07125 15.6219C9.47767 17.007 10.9518 18.1879 12.0908 19.1003C12.3934 19.3427 12.6723 19.5661 12.92 19.7694C13.1677 19.5661 13.4466 19.3427 13.7492 19.1003C14.8882 18.1879 16.3623 17.007 17.7687 15.6219C18.7785 14.6274 19.7031 13.5716 20.3713 12.5105C21.0432 11.4436 21.42 10.4282 21.42 9.5C21.42 7.30898 19.6514 5.5 17.42 5.5C15.2673 5.5 13.9938 7.20226 13.6462 7.74742C13.3089 8.27655 12.5311 8.27653 12.1938 7.74742C11.8462 7.20225 10.5727 5.5 8.41998 5.5ZM2.91998 9.5C2.91998 6.49094 5.35063 4 8.41998 4C10.6514 4 12.1449 5.30207 12.92 6.21581C13.6951 5.30207 15.1886 4 17.42 4C20.4902 4 22.92 6.49102 22.92 9.5C22.92 10.8218 22.3906 12.1189 21.6406 13.3098C20.8869 14.5066 19.874 15.6539 18.8213 16.6906C17.3629 18.1269 15.728 19.4384 14.5702 20.3672C14.0849 20.7565 13.6834 21.0786 13.4139 21.3144C13.1311 21.5619 12.7089 21.5619 12.4261 21.3144C12.1566 21.0786 11.7551 20.7565 11.2698 20.3672C10.112 19.4384 8.4771 18.1269 7.01871 16.6906C5.966 15.6539 4.95306 14.5066 4.1994 13.3098C3.44939 12.1189 2.91998 10.8218 2.91998 9.5Z" fill="#141415"/>
</svg>
